<?xml version="1.0" encoding="UTF-8"?>
<!DOCTYPE svg PUBLIC "-//W3C//DTD SVG 1.1//EN" "http://www.w3.org/Graphics/SVG/1.1/DTD/svg11.dtd">
<svg width="359mm" height="202mm" viewBox="0 0 35900 20200" version="1.1" xmlns="http://www.w3.org/2000/svg" xmlns:xlink="http://www.w3.org/1999/xlink" stroke-width="28.222" stroke-linejoin="round" xml:space="preserve">
 <path fill="rgb(255,255,255)" stroke="none" d="M 17951,20195 L -13,20195 -13,-13 35914,-13 35914,20195 17951,20195 Z"/>
 <path fill="none" stroke="rgb(179,179,179)" stroke-linejoin="round" d="M 17288,17885 L 2523,17885 2523,1909 32053,1909 32053,17885 17288,17885 Z"/>
 <path fill="none" stroke="rgb(179,179,179)" stroke-linejoin="round" d="M 32053,17884 L 2523,17884"/>
 <path fill="none" stroke="rgb(179,179,179)" stroke-linejoin="round" d="M 32053,14688 L 2523,14688"/>
 <path fill="none" stroke="rgb(179,179,179)" stroke-linejoin="round" d="M 32053,11493 L 2523,11493"/>
 <path fill="none" stroke="rgb(179,179,179)" stroke-linejoin="round" d="M 32053,8298 L 2523,8298"/>
 <path fill="none" stroke="rgb(179,179,179)" stroke-linejoin="round" d="M 32053,5103 L 2523,5103"/>
 <path fill="none" stroke="rgb(179,179,179)" stroke-linejoin="round" d="M 32053,1908 L 2523,1908"/>
 <path fill="none" stroke="rgb(179,179,179)" stroke-linejoin="round" d="M 2523,18034 L 2523,17884"/>
 <path fill="none" stroke="rgb(179,179,179)" stroke-linejoin="round" d="M 2523,18034 L 2523,17884"/>
 <path fill="none" stroke="rgb(179,179,179)" stroke-linejoin="round" d="M 2906,18034 L 2906,17884"/>
 <path fill="none" stroke="rgb(179,179,179)" stroke-linejoin="round" d="M 2906,18034 L 2906,17884"/>
 <path fill="none" stroke="rgb(179,179,179)" stroke-linejoin="round" d="M 3290,18034 L 3290,17884"/>
 <path fill="none" stroke="rgb(179,179,179)" stroke-linejoin="round" d="M 3290,18034 L 3290,17884"/>
 <path fill="none" stroke="rgb(179,179,179)" stroke-linejoin="round" d="M 3673,18034 L 3673,17884"/>
 <path fill="none" stroke="rgb(179,179,179)" stroke-linejoin="round" d="M 3673,18034 L 3673,17884"/>
 <path fill="none" stroke="rgb(179,179,179)" stroke-linejoin="round" d="M 4057,18034 L 4057,17884"/>
 <path fill="none" stroke="rgb(179,179,179)" stroke-linejoin="round" d="M 4057,18034 L 4057,17884"/>
 <path fill="none" stroke="rgb(179,179,179)" stroke-linejoin="round" d="M 4440,18034 L 4440,17884"/>
 <path fill="none" stroke="rgb(179,179,179)" stroke-linejoin="round" d="M 4440,18034 L 4440,17884"/>
 <path fill="none" stroke="rgb(179,179,179)" stroke-linejoin="round" d="M 4824,18034 L 4824,17884"/>
 <path fill="none" stroke="rgb(179,179,179)" stroke-linejoin="round" d="M 4824,18034 L 4824,17884"/>
 <path fill="none" stroke="rgb(179,179,179)" stroke-linejoin="round" d="M 5207,18034 L 5207,17884"/>
 <path fill="none" stroke="rgb(179,179,179)" stroke-linejoin="round" d="M 5207,18034 L 5207,17884"/>
 <path fill="none" stroke="rgb(179,179,179)" stroke-linejoin="round" d="M 5591,18034 L 5591,17884"/>
 <path fill="none" stroke="rgb(179,179,179)" stroke-linejoin="round" d="M 5591,18034 L 5591,17884"/>
 <path fill="none" stroke="rgb(179,179,179)" stroke-linejoin="round" d="M 5974,18034 L 5974,17884"/>
 <path fill="none" stroke="rgb(179,179,179)" stroke-linejoin="round" d="M 5974,18034 L 5974,17884"/>
 <path fill="none" stroke="rgb(179,179,179)" stroke-linejoin="round" d="M 6358,18034 L 6358,17884"/>
 <path fill="none" stroke="rgb(179,179,179)" stroke-linejoin="round" d="M 6358,18034 L 6358,17884"/>
 <path fill="none" stroke="rgb(179,179,179)" stroke-linejoin="round" d="M 6741,18034 L 6741,17884"/>
 <path fill="none" stroke="rgb(179,179,179)" stroke-linejoin="round" d="M 6741,18034 L 6741,17884"/>
 <path fill="none" stroke="rgb(179,179,179)" stroke-linejoin="round" d="M 7125,18034 L 7125,17884"/>
 <path fill="none" stroke="rgb(179,179,179)" stroke-linejoin="round" d="M 7125,18034 L 7125,17884"/>
 <path fill="none" stroke="rgb(179,179,179)" stroke-linejoin="round" d="M 7508,18034 L 7508,17884"/>
 <path fill="none" stroke="rgb(179,179,179)" stroke-linejoin="round" d="M 7508,18034 L 7508,17884"/>
 <path fill="none" stroke="rgb(179,179,179)" stroke-linejoin="round" d="M 7892,18034 L 7892,17884"/>
 <path fill="none" stroke="rgb(179,179,179)" stroke-linejoin="round" d="M 7892,18034 L 7892,17884"/>
 <path fill="none" stroke="rgb(179,179,179)" stroke-linejoin="round" d="M 8275,18034 L 8275,17884"/>
 <path fill="none" stroke="rgb(179,179,179)" stroke-linejoin="round" d="M 8275,18034 L 8275,17884"/>
 <path fill="none" stroke="rgb(179,179,179)" stroke-linejoin="round" d="M 8659,18034 L 8659,17884"/>
 <path fill="none" stroke="rgb(179,179,179)" stroke-linejoin="round" d="M 8659,18034 L 8659,17884"/>
 <path fill="none" stroke="rgb(179,179,179)" stroke-linejoin="round" d="M 9042,18034 L 9042,17884"/>
 <path fill="none" stroke="rgb(179,179,179)" stroke-linejoin="round" d="M 9042,18034 L 9042,17884"/>
 <path fill="none" stroke="rgb(179,179,179)" stroke-linejoin="round" d="M 9426,18034 L 9426,17884"/>
 <path fill="none" stroke="rgb(179,179,179)" stroke-linejoin="round" d="M 9426,18034 L 9426,17884"/>
 <path fill="none" stroke="rgb(179,179,179)" stroke-linejoin="round" d="M 9809,18034 L 9809,17884"/>
 <path fill="none" stroke="rgb(179,179,179)" stroke-linejoin="round" d="M 9809,18034 L 9809,17884"/>
 <path fill="none" stroke="rgb(179,179,179)" stroke-linejoin="round" d="M 10193,18034 L 10193,17884"/>
 <path fill="none" stroke="rgb(179,179,179)" stroke-linejoin="round" d="M 10193,18034 L 10193,17884"/>
 <path fill="none" stroke="rgb(179,179,179)" stroke-linejoin="round" d="M 10576,18034 L 10576,17884"/>
 <path fill="none" stroke="rgb(179,179,179)" stroke-linejoin="round" d="M 10576,18034 L 10576,17884"/>
 <path fill="none" stroke="rgb(179,179,179)" stroke-linejoin="round" d="M 10960,18034 L 10960,17884"/>
 <path fill="none" stroke="rgb(179,179,179)" stroke-linejoin="round" d="M 10960,18034 L 10960,17884"/>
 <path fill="none" stroke="rgb(179,179,179)" stroke-linejoin="round" d="M 11343,18034 L 11343,17884"/>
 <path fill="none" stroke="rgb(179,179,179)" stroke-linejoin="round" d="M 11343,18034 L 11343,17884"/>
 <path fill="none" stroke="rgb(179,179,179)" stroke-linejoin="round" d="M 11727,18034 L 11727,17884"/>
 <path fill="none" stroke="rgb(179,179,179)" stroke-linejoin="round" d="M 11727,18034 L 11727,17884"/>
 <path fill="none" stroke="rgb(179,179,179)" stroke-linejoin="round" d="M 12110,18034 L 12110,17884"/>
 <path fill="none" stroke="rgb(179,179,179)" stroke-linejoin="round" d="M 12110,18034 L 12110,17884"/>
 <path fill="none" stroke="rgb(179,179,179)" stroke-linejoin="round" d="M 12494,18034 L 12494,17884"/>
 <path fill="none" stroke="rgb(179,179,179)" stroke-linejoin="round" d="M 12494,18034 L 12494,17884"/>
 <path fill="none" stroke="rgb(179,179,179)" stroke-linejoin="round" d="M 12878,18034 L 12878,17884"/>
 <path fill="none" stroke="rgb(179,179,179)" stroke-linejoin="round" d="M 12878,18034 L 12878,17884"/>
 <path fill="none" stroke="rgb(179,179,179)" stroke-linejoin="round" d="M 13261,18034 L 13261,17884"/>
 <path fill="none" stroke="rgb(179,179,179)" stroke-linejoin="round" d="M 13261,18034 L 13261,17884"/>
 <path fill="none" stroke="rgb(179,179,179)" stroke-linejoin="round" d="M 13645,18034 L 13645,17884"/>
 <path fill="none" stroke="rgb(179,179,179)" stroke-linejoin="round" d="M 13645,18034 L 13645,17884"/>
 <path fill="none" stroke="rgb(179,179,179)" stroke-linejoin="round" d="M 14028,18034 L 14028,17884"/>
 <path fill="none" stroke="rgb(179,179,179)" stroke-linejoin="round" d="M 14028,18034 L 14028,17884"/>
 <path fill="none" stroke="rgb(179,179,179)" stroke-linejoin="round" d="M 14412,18034 L 14412,17884"/>
 <path fill="none" stroke="rgb(179,179,179)" stroke-linejoin="round" d="M 14412,18034 L 14412,17884"/>
 <path fill="none" stroke="rgb(179,179,179)" stroke-linejoin="round" d="M 14795,18034 L 14795,17884"/>
 <path fill="none" stroke="rgb(179,179,179)" stroke-linejoin="round" d="M 14795,18034 L 14795,17884"/>
 <path fill="none" stroke="rgb(179,179,179)" stroke-linejoin="round" d="M 15179,18034 L 15179,17884"/>
 <path fill="none" stroke="rgb(179,179,179)" stroke-linejoin="round" d="M 15179,18034 L 15179,17884"/>
 <path fill="none" stroke="rgb(179,179,179)" stroke-linejoin="round" d="M 15562,18034 L 15562,17884"/>
 <path fill="none" stroke="rgb(179,179,179)" stroke-linejoin="round" d="M 15562,18034 L 15562,17884"/>
 <path fill="none" stroke="rgb(179,179,179)" stroke-linejoin="round" d="M 15946,18034 L 15946,17884"/>
 <path fill="none" stroke="rgb(179,179,179)" stroke-linejoin="round" d="M 15946,18034 L 15946,17884"/>
 <path fill="none" stroke="rgb(179,179,179)" stroke-linejoin="round" d="M 16329,18034 L 16329,17884"/>
 <path fill="none" stroke="rgb(179,179,179)" stroke-linejoin="round" d="M 16329,18034 L 16329,17884"/>
 <path fill="none" stroke="rgb(179,179,179)" stroke-linejoin="round" d="M 16713,18034 L 16713,17884"/>
 <path fill="none" stroke="rgb(179,179,179)" stroke-linejoin="round" d="M 16713,18034 L 16713,17884"/>
 <path fill="none" stroke="rgb(179,179,179)" stroke-linejoin="round" d="M 17096,18034 L 17096,17884"/>
 <path fill="none" stroke="rgb(179,179,179)" stroke-linejoin="round" d="M 17096,18034 L 17096,17884"/>
 <path fill="none" stroke="rgb(179,179,179)" stroke-linejoin="round" d="M 17480,18034 L 17480,17884"/>
 <path fill="none" stroke="rgb(179,179,179)" stroke-linejoin="round" d="M 17480,18034 L 17480,17884"/>
 <path fill="none" stroke="rgb(179,179,179)" stroke-linejoin="round" d="M 17863,18034 L 17863,17884"/>
 <path fill="none" stroke="rgb(179,179,179)" stroke-linejoin="round" d="M 17863,18034 L 17863,17884"/>
 <path fill="none" stroke="rgb(179,179,179)" stroke-linejoin="round" d="M 18246,18034 L 18246,17884"/>
 <path fill="none" stroke="rgb(179,179,179)" stroke-linejoin="round" d="M 18246,18034 L 18246,17884"/>
 <path fill="none" stroke="rgb(179,179,179)" stroke-linejoin="round" d="M 18629,18034 L 18629,17884"/>
 <path fill="none" stroke="rgb(179,179,179)" stroke-linejoin="round" d="M 18629,18034 L 18629,17884"/>
 <path fill="none" stroke="rgb(179,179,179)" stroke-linejoin="round" d="M 19013,18034 L 19013,17884"/>
 <path fill="none" stroke="rgb(179,179,179)" stroke-linejoin="round" d="M 19013,18034 L 19013,17884"/>
 <path fill="none" stroke="rgb(179,179,179)" stroke-linejoin="round" d="M 19396,18034 L 19396,17884"/>
 <path fill="none" stroke="rgb(179,179,179)" stroke-linejoin="round" d="M 19396,18034 L 19396,17884"/>
 <path fill="none" stroke="rgb(179,179,179)" stroke-linejoin="round" d="M 19780,18034 L 19780,17884"/>
 <path fill="none" stroke="rgb(179,179,179)" stroke-linejoin="round" d="M 19780,18034 L 19780,17884"/>
 <path fill="none" stroke="rgb(179,179,179)" stroke-linejoin="round" d="M 20163,18034 L 20163,17884"/>
 <path fill="none" stroke="rgb(179,179,179)" stroke-linejoin="round" d="M 20163,18034 L 20163,17884"/>
 <path fill="none" stroke="rgb(179,179,179)" stroke-linejoin="round" d="M 20547,18034 L 20547,17884"/>
 <path fill="none" stroke="rgb(179,179,179)" stroke-linejoin="round" d="M 20547,18034 L 20547,17884"/>
 <path fill="none" stroke="rgb(179,179,179)" stroke-linejoin="round" d="M 20930,18034 L 20930,17884"/>
 <path fill="none" stroke="rgb(179,179,179)" stroke-linejoin="round" d="M 20930,18034 L 20930,17884"/>
 <path fill="none" stroke="rgb(179,179,179)" stroke-linejoin="round" d="M 21314,18034 L 21314,17884"/>
 <path fill="none" stroke="rgb(179,179,179)" stroke-linejoin="round" d="M 21314,18034 L 21314,17884"/>
 <path fill="none" stroke="rgb(179,179,179)" stroke-linejoin="round" d="M 21697,18034 L 21697,17884"/>
 <path fill="none" stroke="rgb(179,179,179)" stroke-linejoin="round" d="M 21697,18034 L 21697,17884"/>
 <path fill="none" stroke="rgb(179,179,179)" stroke-linejoin="round" d="M 22081,18034 L 22081,17884"/>
 <path fill="none" stroke="rgb(179,179,179)" stroke-linejoin="round" d="M 22081,18034 L 22081,17884"/>
 <path fill="none" stroke="rgb(179,179,179)" stroke-linejoin="round" d="M 22465,18034 L 22465,17884"/>
 <path fill="none" stroke="rgb(179,179,179)" stroke-linejoin="round" d="M 22465,18034 L 22465,17884"/>
 <path fill="none" stroke="rgb(179,179,179)" stroke-linejoin="round" d="M 22848,18034 L 22848,17884"/>
 <path fill="none" stroke="rgb(179,179,179)" stroke-linejoin="round" d="M 22848,18034 L 22848,17884"/>
 <path fill="none" stroke="rgb(179,179,179)" stroke-linejoin="round" d="M 23232,18034 L 23232,17884"/>
 <path fill="none" stroke="rgb(179,179,179)" stroke-linejoin="round" d="M 23232,18034 L 23232,17884"/>
 <path fill="none" stroke="rgb(179,179,179)" stroke-linejoin="round" d="M 23615,18034 L 23615,17884"/>
 <path fill="none" stroke="rgb(179,179,179)" stroke-linejoin="round" d="M 23615,18034 L 23615,17884"/>
 <path fill="none" stroke="rgb(179,179,179)" stroke-linejoin="round" d="M 23999,18034 L 23999,17884"/>
 <path fill="none" stroke="rgb(179,179,179)" stroke-linejoin="round" d="M 23999,18034 L 23999,17884"/>
 <path fill="none" stroke="rgb(179,179,179)" stroke-linejoin="round" d="M 24382,18034 L 24382,17884"/>
 <path fill="none" stroke="rgb(179,179,179)" stroke-linejoin="round" d="M 24382,18034 L 24382,17884"/>
 <path fill="none" stroke="rgb(179,179,179)" stroke-linejoin="round" d="M 24766,18034 L 24766,17884"/>
 <path fill="none" stroke="rgb(179,179,179)" stroke-linejoin="round" d="M 24766,18034 L 24766,17884"/>
 <path fill="none" stroke="rgb(179,179,179)" stroke-linejoin="round" d="M 25149,18034 L 25149,17884"/>
 <path fill="none" stroke="rgb(179,179,179)" stroke-linejoin="round" d="M 25149,18034 L 25149,17884"/>
 <path fill="none" stroke="rgb(179,179,179)" stroke-linejoin="round" d="M 25533,18034 L 25533,17884"/>
 <path fill="none" stroke="rgb(179,179,179)" stroke-linejoin="round" d="M 25533,18034 L 25533,17884"/>
 <path fill="none" stroke="rgb(179,179,179)" stroke-linejoin="round" d="M 25916,18034 L 25916,17884"/>
 <path fill="none" stroke="rgb(179,179,179)" stroke-linejoin="round" d="M 25916,18034 L 25916,17884"/>
 <path fill="none" stroke="rgb(179,179,179)" stroke-linejoin="round" d="M 26300,18034 L 26300,17884"/>
 <path fill="none" stroke="rgb(179,179,179)" stroke-linejoin="round" d="M 26300,18034 L 26300,17884"/>
 <path fill="none" stroke="rgb(179,179,179)" stroke-linejoin="round" d="M 26683,18034 L 26683,17884"/>
 <path fill="none" stroke="rgb(179,179,179)" stroke-linejoin="round" d="M 26683,18034 L 26683,17884"/>
 <path fill="none" stroke="rgb(179,179,179)" stroke-linejoin="round" d="M 27067,18034 L 27067,17884"/>
 <path fill="none" stroke="rgb(179,179,179)" stroke-linejoin="round" d="M 27067,18034 L 27067,17884"/>
 <path fill="none" stroke="rgb(179,179,179)" stroke-linejoin="round" d="M 27450,18034 L 27450,17884"/>
 <path fill="none" stroke="rgb(179,179,179)" stroke-linejoin="round" d="M 27450,18034 L 27450,17884"/>
 <path fill="none" stroke="rgb(179,179,179)" stroke-linejoin="round" d="M 27834,18034 L 27834,17884"/>
 <path fill="none" stroke="rgb(179,179,179)" stroke-linejoin="round" d="M 27834,18034 L 27834,17884"/>
 <path fill="none" stroke="rgb(179,179,179)" stroke-linejoin="round" d="M 28217,18034 L 28217,17884"/>
 <path fill="none" stroke="rgb(179,179,179)" stroke-linejoin="round" d="M 28217,18034 L 28217,17884"/>
 <path fill="none" stroke="rgb(179,179,179)" stroke-linejoin="round" d="M 28601,18034 L 28601,17884"/>
 <path fill="none" stroke="rgb(179,179,179)" stroke-linejoin="round" d="M 28601,18034 L 28601,17884"/>
 <path fill="none" stroke="rgb(179,179,179)" stroke-linejoin="round" d="M 28984,18034 L 28984,17884"/>
 <path fill="none" stroke="rgb(179,179,179)" stroke-linejoin="round" d="M 28984,18034 L 28984,17884"/>
 <path fill="none" stroke="rgb(179,179,179)" stroke-linejoin="round" d="M 29368,18034 L 29368,17884"/>
 <path fill="none" stroke="rgb(179,179,179)" stroke-linejoin="round" d="M 29368,18034 L 29368,17884"/>
 <path fill="none" stroke="rgb(179,179,179)" stroke-linejoin="round" d="M 29751,18034 L 29751,17884"/>
 <path fill="none" stroke="rgb(179,179,179)" stroke-linejoin="round" d="M 29751,18034 L 29751,17884"/>
 <path fill="none" stroke="rgb(179,179,179)" stroke-linejoin="round" d="M 30135,18034 L 30135,17884"/>
 <path fill="none" stroke="rgb(179,179,179)" stroke-linejoin="round" d="M 30135,18034 L 30135,17884"/>
 <path fill="none" stroke="rgb(179,179,179)" stroke-linejoin="round" d="M 30518,18034 L 30518,17884"/>
 <path fill="none" stroke="rgb(179,179,179)" stroke-linejoin="round" d="M 30518,18034 L 30518,17884"/>
 <path fill="none" stroke="rgb(179,179,179)" stroke-linejoin="round" d="M 30902,18034 L 30902,17884"/>
 <path fill="none" stroke="rgb(179,179,179)" stroke-linejoin="round" d="M 30902,18034 L 30902,17884"/>
 <path fill="none" stroke="rgb(179,179,179)" stroke-linejoin="round" d="M 31285,18034 L 31285,17884"/>
 <path fill="none" stroke="rgb(179,179,179)" stroke-linejoin="round" d="M 31285,18034 L 31285,17884"/>
 <path fill="none" stroke="rgb(179,179,179)" stroke-linejoin="round" d="M 31669,18034 L 31669,17884"/>
 <path fill="none" stroke="rgb(179,179,179)" stroke-linejoin="round" d="M 31669,18034 L 31669,17884"/>
 <path fill="none" stroke="rgb(179,179,179)" stroke-linejoin="round" d="M 32053,18034 L 32053,17884"/>
 <path fill="none" stroke="rgb(179,179,179)" stroke-linejoin="round" d="M 32053,18034 L 32053,17884"/>
 <path fill="none" stroke="rgb(179,179,179)" stroke-linejoin="round" d="M 2523,17884 L 32053,17884"/>
 <path fill="none" stroke="rgb(179,179,179)" stroke-linejoin="round" d="M 2373,17884 L 2523,17884"/>
 <path fill="none" stroke="rgb(179,179,179)" stroke-linejoin="round" d="M 2373,17884 L 2523,17884"/>
 <path fill="none" stroke="rgb(179,179,179)" stroke-linejoin="round" d="M 2373,14688 L 2523,14688"/>
 <path fill="none" stroke="rgb(179,179,179)" stroke-linejoin="round" d="M 2373,14688 L 2523,14688"/>
 <path fill="none" stroke="rgb(179,179,179)" stroke-linejoin="round" d="M 2373,11493 L 2523,11493"/>
 <path fill="none" stroke="rgb(179,179,179)" stroke-linejoin="round" d="M 2373,11493 L 2523,11493"/>
 <path fill="none" stroke="rgb(179,179,179)" stroke-linejoin="round" d="M 2373,8298 L 2523,8298"/>
 <path fill="none" stroke="rgb(179,179,179)" stroke-linejoin="round" d="M 2373,8298 L 2523,8298"/>
 <path fill="none" stroke="rgb(179,179,179)" stroke-linejoin="round" d="M 2373,5103 L 2523,5103"/>
 <path fill="none" stroke="rgb(179,179,179)" stroke-linejoin="round" d="M 2373,5103 L 2523,5103"/>
 <path fill="none" stroke="rgb(179,179,179)" stroke-linejoin="round" d="M 2373,1908 L 2523,1908"/>
 <path fill="none" stroke="rgb(179,179,179)" stroke-linejoin="round" d="M 2373,1908 L 2523,1908"/>
 <path fill="none" stroke="rgb(179,179,179)" stroke-linejoin="round" d="M 2523,17884 L 2523,1908"/>
 <path fill="none" stroke="rgb(0,69,134)" stroke-width="80" stroke-linejoin="round" d="M 2523,17641 L 2906,17577 3290,17474 3673,17289 4057,17883 4440,17883 4824,17570 5207,17883 5591,17883 5974,17404 6358,17883 6741,17398 7125,17883 7508,17883 7892,17359 8275,17883 8659,17883 9042,17883 9426,17270 9809,17883 10193,17883 10576,17883 10960,17883 11343,17883 11727,17883 12110,17883 12494,17883 12878,17883 13261,17883 13645,17883 14028,17883 14412,17883 14795,17883 15179,17883 15562,17883 15946,17883 16329,17883 16713,17883 17096,17883 17480,17883 17863,17883 18246,17883 18629,17883 19013,17883 19396,17883 19780,17883 20163,17883 20547,17883 20930,17883 21314,17883 21697,17883 22081,17883 22465,17883 22848,17883 23232,17883 23615,17883 23999,17883 24382,17883 24766,17883 25149,17883 25533,17883 25916,17883 26300,17883 26683,17883 27067,17883 27450,17883 27834,17883 28217,17883 28601,17883 28984,17883 29368,17883 29751,17883 30135,17883 30518,17883 30902,17883 31285,17883 31669,17883 32053,17883"/>
 <path fill="none" stroke="rgb(255,66,14)" stroke-width="80" stroke-linejoin="round" d="M 2523,17884 L 2906,17884 3290,17883 3673,17883 4057,17884 4440,17883 4824,17883 5207,17884 5591,17883 5974,17883 6358,17883 6741,17883 7125,17883 7508,17883 7892,17883 8275,17883 8659,17883 9042,17883 9426,17883 9809,17881 10193,17883 10576,17879 10960,17880 11343,17883 11727,17883 12110,17883 12494,17883 12878,17871 13261,17878 13645,17863 14028,17876 14412,17883 14795,17883 15179,17874 15562,17870 15946,17867 16329,17883 16713,17490 17096,17883 17480,17840 17863,17851 18246,17882 18629,17883 19013,17883 19396,17883 19780,17882 20163,17882 20547,17883 20930,17883 21314,17883 21697,17883 22081,17879 22465,17829 22848,17842 23232,17883 23615,17882 23999,17881 24382,17881 24766,17881 25149,17883 25533,17881 25916,17881 26300,17883 26683,17883 27067,17880 27450,17882 27834,17881 28217,17870 28601,17813 28984,17876 29368,16702 29751,15865 30135,17806 30518,17794 30902,17801 31285,17197 31669,17830 32053,17387"/>
 <path fill="none" stroke="rgb(255,211,32)" stroke-width="80" stroke-linejoin="round" d="M 2523,17884 L 2906,17884 3290,17883 3673,17883 4057,17883 4440,17883 4824,17884 5207,17882 5591,17883 5974,17883 6358,17883 6741,17883 7125,17882 7508,17882 7892,17883 8275,17883 8659,17883 9042,17883 9426,17883 9809,17883 10193,17882 10576,17882 10960,17882 11343,17882 11727,17883 12110,17883 12494,17882 12878,17880 13261,17882 13645,17880 14028,17881 14412,17882 14795,17882 15179,17881 15562,17881 15946,17881 16329,17880 16713,17879 17096,17879 17480,17879 17863,17878 18246,17878 18629,17862 19013,17880 19396,17874 19780,17878 20163,17878 20547,17881 20930,17880 21314,17879 21697,17880 22081,17868 22465,17878 22848,17877 23232,17881 23615,17877 23999,17877 24382,17877 24766,17874 25149,17879 25533,17875 25916,17874 26300,17880 26683,17877 27067,17859 27450,17878 27834,17873 28217,17859 28601,17877 28984,17866 29368,17818 29751,17733 30135,17744 30518,17723 30902,17726 31285,17836 31669,17789 32053,17118"/>
 <path fill="none" stroke="rgb(87,157,28)" stroke-width="80" stroke-linejoin="round" d="M 2523,17883 L 2906,17883 3290,17883 3673,17883 4057,17882 4440,17880 4824,17883 5207,17882 5591,17883 5974,17883 6358,17883 6741,17882 7125,17883 7508,17883 7892,17883 8275,17861 8659,17851 9042,17852 9426,17881 9809,17879 10193,17875 10576,17879 10960,17875 11343,17876 11727,17768 12110,17768 12494,17870 12878,17797 13261,17862 13645,17793 14028,17850 14412,17523 14795,17876 15179,17835 15562,17814 15946,17785 16329,17821 16713,17716 17096,17755 17480,17250 17863,17230 18246,17836 18629,17835 19013,17860 19396,17865 19780,17716 20163,17756 20547,17865 20930,17861 21314,17863 21697,17863 22081,11422 22465,17217 22848,17144 23232,17865 23615,17330 23999,16925 24382,16608 24766,15558 25149,17833 25533,15668 25916,15612 26300,17835 26683,17815 27067,17047 27450,17570 27834,17495 28217,5060 28601,17694 28984,12688 29368,4924 29751,4988 30135,4788 30518,4905 30902,4851 31285,7081 31669,4981 32053,3402"/>
 <text class="SVGTextShape" transform="rotate(-44.9 2475 18490)"><tspan class="TextParagraph"><tspan class="TextPosition" x="2475" y="18490"><tspan font-family="Liberation Sans, sans-serif" font-size="353px" font-weight="400" fill="rgb(0,0,0)" stroke="none" style="white-space: pre">5</tspan></tspan></tspan></text>
 <text class="SVGTextShape" transform="rotate(-44.9 3242 18490)"><tspan class="TextParagraph"><tspan class="TextPosition" x="3242" y="18490"><tspan font-family="Liberation Sans, sans-serif" font-size="353px" font-weight="400" fill="rgb(0,0,0)" stroke="none" style="white-space: pre">6</tspan></tspan></tspan></text>
 <text class="SVGTextShape" transform="rotate(-44.9 4009 18490)"><tspan class="TextParagraph"><tspan class="TextPosition" x="4009" y="18490"><tspan font-family="Liberation Sans, sans-serif" font-size="353px" font-weight="400" fill="rgb(0,0,0)" stroke="none" style="white-space: pre">8</tspan></tspan></tspan></text>
 <text class="SVGTextShape" transform="rotate(-44.9 4776 18490)"><tspan class="TextParagraph"><tspan class="TextPosition" x="4776" y="18490"><tspan font-family="Liberation Sans, sans-serif" font-size="353px" font-weight="400" fill="rgb(0,0,0)" stroke="none" style="white-space: pre">8</tspan></tspan></tspan></text>
 <text class="SVGTextShape" transform="rotate(-44.9 5543 18490)"><tspan class="TextParagraph"><tspan class="TextPosition" x="5543" y="18490"><tspan font-family="Liberation Sans, sans-serif" font-size="353px" font-weight="400" fill="rgb(0,0,0)" stroke="none" style="white-space: pre">9</tspan></tspan></tspan></text>
 <text class="SVGTextShape" transform="rotate(-44.9 6179 18620)"><tspan class="TextParagraph"><tspan class="TextPosition" x="6179" y="18620"><tspan font-family="Liberation Sans, sans-serif" font-size="353px" font-weight="400" fill="rgb(0,0,0)" stroke="none" style="white-space: pre">10</tspan></tspan></tspan></text>
 <text class="SVGTextShape" transform="rotate(-44.9 6946 18620)"><tspan class="TextParagraph"><tspan class="TextPosition" x="6946" y="18620"><tspan font-family="Liberation Sans, sans-serif" font-size="353px" font-weight="400" fill="rgb(0,0,0)" stroke="none" style="white-space: pre">11</tspan></tspan></tspan></text>
 <text class="SVGTextShape" transform="rotate(-44.9 7713 18620)"><tspan class="TextParagraph"><tspan class="TextPosition" x="7713" y="18620"><tspan font-family="Liberation Sans, sans-serif" font-size="353px" font-weight="400" fill="rgb(0,0,0)" stroke="none" style="white-space: pre">12</tspan></tspan></tspan></text>
 <text class="SVGTextShape" transform="rotate(-44.9 8480 18620)"><tspan class="TextParagraph"><tspan class="TextPosition" x="8480" y="18620"><tspan font-family="Liberation Sans, sans-serif" font-size="353px" font-weight="400" fill="rgb(0,0,0)" stroke="none" style="white-space: pre">13</tspan></tspan></tspan></text>
 <text class="SVGTextShape" transform="rotate(-44.9 9247 18620)"><tspan class="TextParagraph"><tspan class="TextPosition" x="9247" y="18620"><tspan font-family="Liberation Sans, sans-serif" font-size="353px" font-weight="400" fill="rgb(0,0,0)" stroke="none" style="white-space: pre">13</tspan></tspan></tspan></text>
 <text class="SVGTextShape" transform="rotate(-44.9 10014 18620)"><tspan class="TextParagraph"><tspan class="TextPosition" x="10014" y="18620"><tspan font-family="Liberation Sans, sans-serif" font-size="353px" font-weight="400" fill="rgb(0,0,0)" stroke="none" style="white-space: pre">14</tspan></tspan></tspan></text>
 <text class="SVGTextShape" transform="rotate(-44.9 10781 18620)"><tspan class="TextParagraph"><tspan class="TextPosition" x="10781" y="18620"><tspan font-family="Liberation Sans, sans-serif" font-size="353px" font-weight="400" fill="rgb(0,0,0)" stroke="none" style="white-space: pre">15</tspan></tspan></tspan></text>
 <text class="SVGTextShape" transform="rotate(-44.9 11548 18620)"><tspan class="TextParagraph"><tspan class="TextPosition" x="11548" y="18620"><tspan font-family="Liberation Sans, sans-serif" font-size="353px" font-weight="400" fill="rgb(0,0,0)" stroke="none" style="white-space: pre">16</tspan></tspan></tspan></text>
 <text class="SVGTextShape" transform="rotate(-44.9 12315 18620)"><tspan class="TextParagraph"><tspan class="TextPosition" x="12315" y="18620"><tspan font-family="Liberation Sans, sans-serif" font-size="353px" font-weight="400" fill="rgb(0,0,0)" stroke="none" style="white-space: pre">17</tspan></tspan></tspan></text>
 <text class="SVGTextShape" transform="rotate(-44.9 13082 18620)"><tspan class="TextParagraph"><tspan class="TextPosition" x="13082" y="18620"><tspan font-family="Liberation Sans, sans-serif" font-size="353px" font-weight="400" fill="rgb(0,0,0)" stroke="none" style="white-space: pre">18</tspan></tspan></tspan></text>
 <text class="SVGTextShape" transform="rotate(-44.9 13849 18620)"><tspan class="TextParagraph"><tspan class="TextPosition" x="13849" y="18620"><tspan font-family="Liberation Sans, sans-serif" font-size="353px" font-weight="400" fill="rgb(0,0,0)" stroke="none" style="white-space: pre">19</tspan></tspan></tspan></text>
 <text class="SVGTextShape" transform="rotate(-44.9 14616 18620)"><tspan class="TextParagraph"><tspan class="TextPosition" x="14616" y="18620"><tspan font-family="Liberation Sans, sans-serif" font-size="353px" font-weight="400" fill="rgb(0,0,0)" stroke="none" style="white-space: pre">21</tspan></tspan></tspan></text>
 <text class="SVGTextShape" transform="rotate(-44.9 15383 18620)"><tspan class="TextParagraph"><tspan class="TextPosition" x="15383" y="18620"><tspan font-family="Liberation Sans, sans-serif" font-size="353px" font-weight="400" fill="rgb(0,0,0)" stroke="none" style="white-space: pre">22</tspan></tspan></tspan></text>
 <text class="SVGTextShape" transform="rotate(-44.9 16150 18620)"><tspan class="TextParagraph"><tspan class="TextPosition" x="16150" y="18620"><tspan font-family="Liberation Sans, sans-serif" font-size="353px" font-weight="400" fill="rgb(0,0,0)" stroke="none" style="white-space: pre">25</tspan></tspan></tspan></text>
 <text class="SVGTextShape" transform="rotate(-44.9 16917 18620)"><tspan class="TextParagraph"><tspan class="TextPosition" x="16917" y="18620"><tspan font-family="Liberation Sans, sans-serif" font-size="353px" font-weight="400" fill="rgb(0,0,0)" stroke="none" style="white-space: pre">26</tspan></tspan></tspan></text>
 <text class="SVGTextShape" transform="rotate(-44.9 17684 18620)"><tspan class="TextParagraph"><tspan class="TextPosition" x="17684" y="18620"><tspan font-family="Liberation Sans, sans-serif" font-size="353px" font-weight="400" fill="rgb(0,0,0)" stroke="none" style="white-space: pre">28</tspan></tspan></tspan></text>
 <text class="SVGTextShape" transform="rotate(-44.9 18450 18620)"><tspan class="TextParagraph"><tspan class="TextPosition" x="18450" y="18620"><tspan font-family="Liberation Sans, sans-serif" font-size="353px" font-weight="400" fill="rgb(0,0,0)" stroke="none" style="white-space: pre">30</tspan></tspan></tspan></text>
 <text class="SVGTextShape" transform="rotate(-44.9 19217 18620)"><tspan class="TextParagraph"><tspan class="TextPosition" x="19217" y="18620"><tspan font-family="Liberation Sans, sans-serif" font-size="353px" font-weight="400" fill="rgb(0,0,0)" stroke="none" style="white-space: pre">30</tspan></tspan></tspan></text>
 <text class="SVGTextShape" transform="rotate(-44.9 19984 18620)"><tspan class="TextParagraph"><tspan class="TextPosition" x="19984" y="18620"><tspan font-family="Liberation Sans, sans-serif" font-size="353px" font-weight="400" fill="rgb(0,0,0)" stroke="none" style="white-space: pre">31</tspan></tspan></tspan></text>
 <text class="SVGTextShape" transform="rotate(-44.9 20751 18620)"><tspan class="TextParagraph"><tspan class="TextPosition" x="20751" y="18620"><tspan font-family="Liberation Sans, sans-serif" font-size="353px" font-weight="400" fill="rgb(0,0,0)" stroke="none" style="white-space: pre">31</tspan></tspan></tspan></text>
 <text class="SVGTextShape" transform="rotate(-44.9 21518 18620)"><tspan class="TextParagraph"><tspan class="TextPosition" x="21518" y="18620"><tspan font-family="Liberation Sans, sans-serif" font-size="353px" font-weight="400" fill="rgb(0,0,0)" stroke="none" style="white-space: pre">31</tspan></tspan></tspan></text>
 <text class="SVGTextShape" transform="rotate(-44.9 22286 18620)"><tspan class="TextParagraph"><tspan class="TextPosition" x="22286" y="18620"><tspan font-family="Liberation Sans, sans-serif" font-size="353px" font-weight="400" fill="rgb(0,0,0)" stroke="none" style="white-space: pre">33</tspan></tspan></tspan></text>
 <text class="SVGTextShape" transform="rotate(-44.9 23053 18620)"><tspan class="TextParagraph"><tspan class="TextPosition" x="23053" y="18620"><tspan font-family="Liberation Sans, sans-serif" font-size="353px" font-weight="400" fill="rgb(0,0,0)" stroke="none" style="white-space: pre">34</tspan></tspan></tspan></text>
 <text class="SVGTextShape" transform="rotate(-44.9 23820 18620)"><tspan class="TextParagraph"><tspan class="TextPosition" x="23820" y="18620"><tspan font-family="Liberation Sans, sans-serif" font-size="353px" font-weight="400" fill="rgb(0,0,0)" stroke="none" style="white-space: pre">38</tspan></tspan></tspan></text>
 <text class="SVGTextShape" transform="rotate(-44.9 24587 18620)"><tspan class="TextParagraph"><tspan class="TextPosition" x="24587" y="18620"><tspan font-family="Liberation Sans, sans-serif" font-size="353px" font-weight="400" fill="rgb(0,0,0)" stroke="none" style="white-space: pre">45</tspan></tspan></tspan></text>
 <text class="SVGTextShape" transform="rotate(-44.9 25354 18620)"><tspan class="TextParagraph"><tspan class="TextPosition" x="25354" y="18620"><tspan font-family="Liberation Sans, sans-serif" font-size="353px" font-weight="400" fill="rgb(0,0,0)" stroke="none" style="white-space: pre">47</tspan></tspan></tspan></text>
 <text class="SVGTextShape" transform="rotate(-44.9 26121 18620)"><tspan class="TextParagraph"><tspan class="TextPosition" x="26121" y="18620"><tspan font-family="Liberation Sans, sans-serif" font-size="353px" font-weight="400" fill="rgb(0,0,0)" stroke="none" style="white-space: pre">49</tspan></tspan></tspan></text>
 <text class="SVGTextShape" transform="rotate(-44.9 26888 18620)"><tspan class="TextParagraph"><tspan class="TextPosition" x="26888" y="18620"><tspan font-family="Liberation Sans, sans-serif" font-size="353px" font-weight="400" fill="rgb(0,0,0)" stroke="none" style="white-space: pre">54</tspan></tspan></tspan></text>
 <text class="SVGTextShape" transform="rotate(-44.9 27655 18620)"><tspan class="TextParagraph"><tspan class="TextPosition" x="27655" y="18620"><tspan font-family="Liberation Sans, sans-serif" font-size="353px" font-weight="400" fill="rgb(0,0,0)" stroke="none" style="white-space: pre">65</tspan></tspan></tspan></text>
 <text class="SVGTextShape" transform="rotate(-44.9 28422 18620)"><tspan class="TextParagraph"><tspan class="TextPosition" x="28422" y="18620"><tspan font-family="Liberation Sans, sans-serif" font-size="353px" font-weight="400" fill="rgb(0,0,0)" stroke="none" style="white-space: pre">75</tspan></tspan></tspan></text>
 <text class="SVGTextShape" transform="rotate(-44.9 29058 18752)"><tspan class="TextParagraph"><tspan class="TextPosition" x="29058" y="18752"><tspan font-family="Liberation Sans, sans-serif" font-size="353px" font-weight="400" fill="rgb(0,0,0)" stroke="none" style="white-space: pre">104</tspan></tspan></tspan></text>
 <text class="SVGTextShape" transform="rotate(-44.9 29825 18752)"><tspan class="TextParagraph"><tspan class="TextPosition" x="29825" y="18752"><tspan font-family="Liberation Sans, sans-serif" font-size="353px" font-weight="400" fill="rgb(0,0,0)" stroke="none" style="white-space: pre">125</tspan></tspan></tspan></text>
 <text class="SVGTextShape" transform="rotate(-44.9 30592 18752)"><tspan class="TextParagraph"><tspan class="TextPosition" x="30592" y="18752"><tspan font-family="Liberation Sans, sans-serif" font-size="353px" font-weight="400" fill="rgb(0,0,0)" stroke="none" style="white-space: pre">127</tspan></tspan></tspan></text>
 <text class="SVGTextShape" transform="rotate(-44.9 31359 18752)"><tspan class="TextParagraph"><tspan class="TextPosition" x="31359" y="18752"><tspan font-family="Liberation Sans, sans-serif" font-size="353px" font-weight="400" fill="rgb(0,0,0)" stroke="none" style="white-space: pre">178</tspan></tspan></tspan></text>
 <text class="SVGTextShape"><tspan class="TextParagraph"><tspan class="TextPosition" x="2088" y="18004"><tspan font-family="Liberation Sans, sans-serif" font-size="353px" font-weight="400" fill="rgb(0,0,0)" stroke="none" style="white-space: pre">0</tspan></tspan></tspan></text>
 <text class="SVGTextShape"><tspan class="TextParagraph"><tspan class="TextPosition" x="1903" y="14808"><tspan font-family="Liberation Sans, sans-serif" font-size="353px" font-weight="400" fill="rgb(0,0,0)" stroke="none" style="white-space: pre">50</tspan></tspan></tspan></text>
 <text class="SVGTextShape"><tspan class="TextParagraph"><tspan class="TextPosition" x="1717" y="11613"><tspan font-family="Liberation Sans, sans-serif" font-size="353px" font-weight="400" fill="rgb(0,0,0)" stroke="none" style="white-space: pre">100</tspan></tspan></tspan></text>
 <text class="SVGTextShape"><tspan class="TextParagraph"><tspan class="TextPosition" x="1717" y="8418"><tspan font-family="Liberation Sans, sans-serif" font-size="353px" font-weight="400" fill="rgb(0,0,0)" stroke="none" style="white-space: pre">150</tspan></tspan></tspan></text>
 <text class="SVGTextShape"><tspan class="TextParagraph"><tspan class="TextPosition" x="1717" y="5223"><tspan font-family="Liberation Sans, sans-serif" font-size="353px" font-weight="400" fill="rgb(0,0,0)" stroke="none" style="white-space: pre">200</tspan></tspan></tspan></text>
 <text class="SVGTextShape"><tspan class="TextParagraph"><tspan class="TextPosition" x="1717" y="2028"><tspan font-family="Liberation Sans, sans-serif" font-size="353px" font-weight="400" fill="rgb(0,0,0)" stroke="none" style="white-space: pre">250</tspan></tspan></tspan></text>
 <text class="SVGTextShape"><tspan class="TextParagraph"><tspan class="TextPosition" x="16416" y="1062"><tspan font-family="Liberation Sans, sans-serif" font-size="459px" font-weight="400" fill="rgb(0,0,0)" stroke="none" style="white-space: pre">Tempo x Cores</tspan></tspan></tspan></text>
 <path fill="none" stroke="rgb(0,69,134)" stroke-width="80" stroke-linejoin="round" d="M 32887,9343 L 33687,9343"/>
 <path fill="none" stroke="rgb(255,66,14)" stroke-width="80" stroke-linejoin="round" d="M 32887,9841 L 33687,9841"/>
 <path fill="none" stroke="rgb(255,211,32)" stroke-width="80" stroke-linejoin="round" d="M 32887,10338 L 33687,10338"/>
 <path fill="none" stroke="rgb(87,157,28)" stroke-width="80" stroke-linejoin="round" d="M 32887,10836 L 33687,10836"/>
 <text class="SVGTextShape"><tspan class="TextParagraph"><tspan class="TextPosition" x="33787" y="9463"><tspan font-family="Liberation Sans, sans-serif" font-size="353px" font-weight="400" fill="rgb(0,0,0)" stroke="none" style="white-space: pre">GBBS</tspan></tspan></tspan></text>
 <text class="SVGTextShape"><tspan class="TextParagraph"><tspan class="TextPosition" x="33787" y="9961"><tspan font-family="Liberation Sans, sans-serif" font-size="353px" font-weight="400" fill="rgb(0,0,0)" stroke="none" style="white-space: pre">Kissat</tspan></tspan></tspan></text>
 <text class="SVGTextShape"><tspan class="TextParagraph"><tspan class="TextPosition" x="33787" y="10458"><tspan font-family="Liberation Sans, sans-serif" font-size="353px" font-weight="400" fill="rgb(0,0,0)" stroke="none" style="white-space: pre">Kissab-Mab</tspan></tspan></tspan></text>
 <text class="SVGTextShape"><tspan class="TextParagraph"><tspan class="TextPosition" x="33787" y="10956"><tspan font-family="Liberation Sans, sans-serif" font-size="353px" font-weight="400" fill="rgb(0,0,0)" stroke="none" style="white-space: pre">hKis</tspan></tspan></tspan></text>
 <text class="SVGTextShape"><tspan class="TextParagraph"><tspan class="TextPosition" x="16065" y="19600"><tspan font-family="Liberation Sans, sans-serif" font-size="318px" font-weight="400" fill="rgb(0,0,0)" stroke="none" style="white-space: pre">Nº de cores</tspan></tspan></tspan></text>
 <text class="SVGTextShape" transform="rotate(-90 824 10973)"><tspan class="TextParagraph"><tspan class="TextPosition" x="824" y="10973"><tspan font-family="Liberation Sans, sans-serif" font-size="318px" font-weight="400" fill="rgb(0,0,0)" stroke="none" style="white-space: pre">Tempo (s)</tspan></tspan></tspan></text>
</svg>